<svg class="Brand-logo" xmlns="http://www.w3.org/2000/svg" viewBox="94.565 50.862 100 65.413" enable-background="new 94.565 50.862 100 65.413"><path class="Brand-logoTopPath" fill="#48ce65" d="M155.66 50.902s-35.025-2.09-61.095 23.88l39.7 12.04s22.49-28.158 60.3-25.87l-38.905-10.05zm-13.533 13.134c-6.27 0-11.244-1.493-11.244-3.284 0-1.79 5.075-3.284 11.244-3.284 6.27 0 11.244 1.493 11.244 3.284 0 1.792-4.974 3.284-11.243 3.284z"></path><path class="Brand-logoMiddlePath" fill="#48ce65" d="M193.47 63.04c-33.035.2-58.308 30.946-58.308 30.946L98.048 81.55l4.18 9.352 33.133 11.443s25.97-37.512 57.712-38.607l.398-.697z"></path><path class="Brand-logoBottomPath" fill="#48ce65" d="M192.177 65.828c-27.96 2.488-55.92 43.682-55.92 43.682L105.61 97.867l3.582 7.86 26.965 10.548c20.597-31.74 40.896-47.264 55.522-49.552l.497-.895z"></path></svg>